<svg width="497" height="157" viewBox="0 0 497 157" fill="none" xmlns="http://www.w3.org/2000/svg">
<!-- F letter -->
<path d="M-1.09747e-05 156.804V-3.63588e-06H101.506V36.135H40.296V156.804H-1.09747e-05ZM23.214 99.3165V67.7805H94.9365V99.3165H23.214Z" fill="url(#paint0_radial_13_7)"/>
<!-- A letter (shifted +15) -->
<path d="M101.3767 156.804L162.04 -3.63588e-06H198.284L258.947 156.804H217.666L180.436 56.064L179.122 52.341L177.808 56.064L140.14 156.804H101.3767ZM132.913 126.692L142.22 101.616H216.68L226.207 126.692H132.913Z" fill="url(#paint0_radial_13_7)"/>
<!-- P letter (shifted +30) -->
<path d="M285.571 156.804V-3.63588e-06H352.914C370.288 -3.63588e-06 384.085 5.0005 394.305 15.0015C404.598 24.9295 409.744 38.5805 409.744 55.9545C409.744 72.9635 404.634 86.3225 394.414 96.0315C384.267 105.668 370.434 110.485 352.914 110.485H309.114V78.2925H348.534C355.542 78.2925 361.053 76.577 365.068 73.146C369.083 69.642 371.091 64.094 371.091 56.502C371.091 49.202 368.901 43.8365 364.521 40.4055C360.214 36.9015 354.483 35.1495 347.329 35.1495H325.867V156.804H285.571Z" fill="url(#paint0_radial_13_7)"/>
<!-- I letter (shifted +45) -->
<path d="M441.082 156.804V-3.63588e-06H481.488V156.804H441.082Z" fill="url(#paint0_radial_13_7)"/>
<defs>
<radialGradient id="paint0_radial_13_7" cx="0" cy="0" r="1" gradientUnits="userSpaceOnUse" gradientTransform="translate(9.25049 43.804) rotate(14.1014) scale(486.863 837.516)">
<stop stop-color="#2B7FFF"/>
<stop offset="1" stop-color="#615FFF"/>
</radialGradient>
</defs>
</svg>
