<svg width="437" height="157" viewBox="0 0 437 157" fill="none" xmlns="http://www.w3.org/2000/svg">
<path d="M-1.09747e-05 156.804V-3.63588e-06H101.506V36.135H40.296V156.804H-1.09747e-05ZM23.214 99.3165V67.7805H94.9365V99.3165H23.214ZM86.3767 156.804L147.04 -3.63588e-06H183.284L243.947 156.804H202.666L165.436 56.064L164.122 52.341L162.808 56.064L125.14 156.804H86.3767ZM117.913 126.692L127.22 101.616H201.68L211.207 126.692H117.913ZM255.571 156.804V-3.63588e-06H322.914C340.288 -3.63588e-06 354.085 5.0005 364.305 15.0015C374.598 24.9295 379.744 38.5805 379.744 55.9545C379.744 72.9635 374.634 86.3225 364.414 96.0315C354.267 105.668 340.434 110.485 322.914 110.485H279.114V78.2925H318.534C325.542 78.2925 331.053 76.577 335.068 73.146C339.083 69.642 341.091 64.094 341.091 56.502C341.091 49.202 338.901 43.8365 334.521 40.4055C330.214 36.9015 324.483 35.1495 317.329 35.1495H295.867V156.804H255.571ZM396.082 156.804V-3.63588e-06H436.488V156.804H396.082Z" fill="url(#paint0_radial_13_7)"/>
<defs>
<radialGradient id="paint0_radial_13_7" cx="0" cy="0" r="1" gradientUnits="userSpaceOnUse" gradientTransform="translate(9.25049 43.804) rotate(14.1014) scale(426.863 837.516)">
<stop stop-color="#2B7FFF"/>
<stop offset="1" stop-color="#615FFF"/>
</radialGradient>
</defs>
</svg>
